# xmcd
#
# Track frame offsets:
#	150
#	12831
#	23681
#	37304
#	50289
#	63141
#	77236
#	91333
#	103612
#	118352
#	129805
#	143851
#	156885
#	170202
#	183756
#	198162
#	210892
#	221683
#	235205
#	248155
#
# Disc length: 3486 seconds
#
# Revision: 1
# Processed by: cddbd v1.5.1PL0 Copyright (c) Steve Scherf et al.
# Submitted via: audiograbber 1.83.01
#
DISCID=0e0d9c14
DTITLE=Various Artist - Blues Legends Volume 3
DYEAR=2003
DGENRE=Blues
TTITLE0=Big Joe Williams - Baby please don't go
TTITLE1=Robert Johnson - Stop Breakin Down Blues
TTITLE2=Big Joe Williams - I know you're gonna miss me
TTITLE3=Mississippi John Hurt - Got the blues can't be satisfied
TTITLE4=Big Bill Broonzy - Night time is the right time
TTITLE5=Sleepy John Estes - I aint gonna be worried
TTITLE6=Sonny Boy Williamson - Blue Bird Blues
TTITLE7=Sonny Terry and Brownie McGhee - You got to have your dollar
TTITLE8=Blind Boy Fuller - Baby you gotta change your mind
TTITLE9=Robert Johnson - Crossroad Blues
TTITLE10=Leadbelly - Midnight
TTITLE11=Big Bill Broonzy - How do you want it done?
TTITLE12=Sonny Boy Williamson - Whiskey Headed Woman Blues
TTITLE13=Blind Blake - Rope Stretching Blues
TTITLE14=Bukka White - Panama Limited Blues
TTITLE15=Sonny Terry - Somebody's been talkin'
TTITLE16=Robert Johnson - Rambling on my mind
TTITLE17=Sonny Boy Williamson - Shotgun blues
TTITLE18=Leadbelly - Goodnight Irene
TTITLE19=Tampa Red - You can't get that stuff no more
EXTD=
EXTT0=
EXTT1=
EXTT2=
EXTT3=
EXTT4=
EXTT5=
EXTT6=
EXTT7=
EXTT8=
EXTT9=
EXTT10=
EXTT11=
EXTT12=
EXTT13=
EXTT14=
EXTT15=
EXTT16=
EXTT17=
EXTT18=
EXTT19=
PLAYORDER=
